<svg width="292.651px" height="70px" xmlns="http://www.w3.org/2000/svg" viewBox="84.74750976562501 -14.209374999999994 330.50498046875 178.41875" style="background: rgba(0, 0, 0, 0);" preserveAspectRatio="xMidYMid"><defs><filter id="editing-raise" x="-100%" y="-100%" width="300%" height="300%"><feFlood flood-color="#ccc" result="flood-surface"></feFlood><feFlood flood-color="#777" result="flood-extrude"></feFlood><feMorphology operator="erode" in="SourceAlpha" radius="1" result="erode"></feMorphology><feConvolveMatrix in="erode" result="shadow" order="11,8" divisor="1" kernelMatrix="0 0 0 1 1 1 1 1 0 0 0 0 0 1 0 0 0 0 0 1 0 0 0 0 1 0 0 0 0 0 1 0 0 0 0 1 0 0 0 0 0 1 0 0 0 0 1 0 0 0 0 0 1 0 0 0 0 0 1 0 0 0 1 0 0 0 0 0 0 1 1 0 1 1 0 0 0 0 0 0 0 0 1 0 0 0 0 0"></feConvolveMatrix><feOffset dx="0" dy="4" in="shadow" result="offset"></feOffset><feGaussianBlur in="offset" stdDeviation="0.2" result="blur"></feGaussianBlur><feComposite operator="in" in="flood-extrude" in2="blur" result="extrude"></feComposite><feMorphology operator="erode" in="SourceAlpha" radius="1" result="erode2"></feMorphology><feConvolveMatrix in="erode2" result="out" order="4,4" divisor="1" kernelMatrix="0 1 1 0 1 0 0 1 1 0 0 1 0 1 1 0 "></feConvolveMatrix><feComposite operator="in" in="flood-surface" in2="out" result="text"></feComposite><feMerge><feMergeNode in="extrude"></feMergeNode><feMergeNode in="text"></feMergeNode></feMerge></filter></defs><g filter="url(#editing-raise)"><g transform="translate(137.1999969482422, 112.3515625)"><path d="M12 0L1 0L13-66L34.50-66L50.10-20.60L58.40-66L69.50-65.90L57.30 0L34.40 0L20-43.70L12 0ZM96-5.50L96-5.50L96-5.50Q92.90 2 83 2L83 2L83 2Q77.90 2 74.70-1.50L74.70-1.50L74.70-1.50Q72-4.60 72-7.70L72-7.70L72-7.70Q72-15.80 75.70-31.60L75.70-31.60L79.40-51L99.70-53L93.60-21.40L93.60-21.40Q91.90-14 91.90-11.40L91.90-11.40L91.90-11.40Q91.90-5.70 96-5.50ZM81.20-64.90L81.20-64.90L81.20-64.90Q81.20-68.80 84.45-70.90L84.45-70.90L84.45-70.90Q87.70-73 92.40-73L92.40-73L92.40-73Q97.10-73 99.95-70.90L99.95-70.90L99.95-70.90Q102.80-68.80 102.80-64.90L102.80-64.90L102.80-64.90Q102.80-61 99.65-59L99.65-59L99.65-59Q96.50-57 91.80-57L91.80-57L91.80-57Q87.10-57 84.15-59L84.15-59L84.15-59Q81.20-61 81.20-64.90ZM146.80 2L146.80 2L146.80 2Q134.70 2 134.70-7.40L134.70-7.40L134.70-7.40Q134.80-10 135.60-14.40L135.60-14.40L137.40-23.60L137.40-23.60Q140.10-36.60 140.10-39.50L140.10-39.50L140.10-39.50Q140.10-45.30 136.70-45.30L136.70-45.30L136.70-45.30Q131-45.30 128-30.40L128-30.40L122.10 0L102 2L112.40-51.10L128.80-53L127.20-43.20L127.20-43.20Q131.90-53 146.30-53L146.30-53L146.30-53Q153.30-53 156.25-50.05L156.25-50.05L156.25-50.05Q159.20-47.10 159.20-40.50L159.20-40.50L159.20-40.50Q159.20-34.30 156-19.80L156-19.80L156-19.80Q154.50-13.30 154.50-10.85L154.50-10.85L154.50-10.85Q154.50-8.40 155.85-7L155.85-7L155.85-7Q157.20-5.60 159.20-5.40L159.20-5.40L159.20-5.40Q158.20-2 154.75 0L154.75 0L154.75 0Q151.30 2 146.80 2ZM171.55-3L171.55-3L171.55-3Q169.20-5.60 168.15-9.70L168.15-9.70L168.15-9.70Q167.10-13.80 167.10-20.50L167.10-20.50L167.10-20.50Q167.10-27.20 169.40-33.30L169.40-33.30L169.40-33.30Q171.70-39.40 175.90-43.80L175.90-43.80L175.90-43.80Q184.50-53 198.70-53L198.70-53L198.70-53Q203.80-53 207.50-51.30L207.50-51.30L224.60-53L217.20-14L217.20-14Q216.90-12.80 216.90-10.60L216.90-10.60L216.90-10.60Q216.90-8.40 218.25-7L218.25-7L218.25-7Q219.60-5.60 221.60-5.40L221.60-5.40L221.60-5.40Q220.60-2 216.95 0L216.95 0L216.95 0Q213.30 2 209.20 2L209.20 2L209.20 2Q205.10 2 202.35 0.45L202.35 0.45L202.35 0.45Q199.60-1.10 198.80-3.70L198.80-3.70L198.80-3.70Q197.20-1.20 193.80 0.40L193.80 0.40L193.80 0.40Q190.40 2 185.85 2L185.85 2L185.85 2Q181.30 2 177.60 0.80L177.60 0.80L177.60 0.80Q173.90-0.40 171.55-3ZM192.65-43.60L192.65-43.60L192.65-43.60Q191.50-41.80 190.50-38.75L190.50-38.75L190.50-38.75Q189.50-35.70 187.85-27.55L187.85-27.55L187.85-27.55Q186.20-19.40 186.20-13.60L186.20-13.60L186.20-13.60Q186.20-7.80 187.10-6.10L187.10-6.10L187.10-6.10Q188-4.40 189.60-4.40L189.60-4.40L189.60-4.40Q192.80-4.40 195.15-7.45L195.15-7.45L195.15-7.45Q197.50-10.50 198.40-15.90L198.40-15.90L203.70-45.20L203.70-45.20Q201.60-47 199.15-47L199.15-47L199.15-47Q196.70-47 195.25-46.20L195.25-46.20L195.25-46.20Q193.80-45.40 192.65-43.60Z"></path></g></g><style>text {
  font-size: 64px;
  font-family: Arial Black;
  dominant-baseline: central;
  text-anchor: middle;
}</style></svg>