<svg xmlns="http://www.w3.org/2000/svg" id="Layer_1" data-name="Layer 1" viewBox="0 0 360 86.67"><defs><style>.cls-1{fill:#616363;fill-rule:evenodd;}</style></defs><title>bismillah</title><path class="cls-1" d="M20.24,19.91a5.69,5.69,0,0,0-3-1.77,4.21,4.21,0,0,0-.83,1.25c0,1,.59,1.46,1.77,1.46a2.68,2.68,0,0,0,2.08-.94ZM50,29.38a52.45,52.45,0,0,1-7-1.87A25.41,25.41,0,0,0,36,26.05q-5.52,0-5.52,4.17a7,7,0,0,0,1.15,3.64,3.9,3.9,0,0,0,2.5.83,20.75,20.75,0,0,0,8-2c4.65-2,7.28-3.12,7.91-3.33Zm64.86,21c-.7-1-1.46-1.21-2.29-.73a3,3,0,0,0,2.29.73ZM116.13,34A43,43,0,0,0,100,31.15c-3,0-4.93.28-5.83.84q0,.51,3.12,2.91a64.6,64.6,0,0,1,5.52,4.69A101.07,101.07,0,0,1,116.13,34Zm18.43,25.51a.55.55,0,0,0-.63-.62,1.88,1.88,0,0,0-1.46.73,2.69,2.69,0,0,0,1.46,1c.14-.21.28-.44.42-.68a1.38,1.38,0,0,0,.21-.47Zm2,1.87c-.34-.34-.83-.9-1.45-1.66L134.66,61a1.93,1.93,0,0,0,1.25.42,1.88,1.88,0,0,0,.62-.11Zm54.25-.62c-.7-1-1.46-1.21-2.29-.73a3,3,0,0,0,2.29.73Zm5.3-6.87a9.09,9.09,0,0,1-2.29-2.19,7.46,7.46,0,0,0,.63,2.87c.42,1,.83,1.51,1.25,1.51s.41-.73.41-2.19ZM339.65,39.38a5.1,5.1,0,0,0-3-1.77,4.12,4.12,0,0,0-.84,1.25c0,1,.59,1.45,1.77,1.45a2.48,2.48,0,0,0,2.08-.93ZM26.9,60.93l-1.56,2.71c-1.11.27-2.18.55-3.22.83-1.81.62-2.71,1.35-2.71,2.18a36,36,0,0,1,1.14,6.77,33.63,33.63,0,0,1-.2,5.21,34.1,34.1,0,0,0-1-7,35.56,35.56,0,0,1-1-5.67,3,3,0,0,1,1.61-3c1.08-.49,2.1-.94,3.07-1.36A4.92,4.92,0,0,0,21.18,61a9.2,9.2,0,0,1-1.46,1l.1-1.25A16.87,16.87,0,0,0,21,59c.38-.66.82-1,1.3-1,1,0,2.5,1,4.58,2.92Zm-15-33.11q-1,6.56-7.81,9.06L4,36.67Q7.65,34.59,8.48,32c-2.36.2-3.79.65-4.27,1.35.35-2.08.93-3.47,1.77-4.17.35-.34,2.32-.79,5.93-1.35Zm17,20.72-2,4-4.16-2.19,1.56-3.44-3.85-2,1.87-4,4.27,2.19-1.66,3.33,3.95,2.08Zm23.22-.31q-3.75,9.26-9.47,9.26-4,0-4-3.85,0-3.33,5.41-6.77a3.89,3.89,0,0,0-2-.62,3.47,3.47,0,0,0-2.5,1.14v-.93q1-2.61,3.33-2.61a15.94,15.94,0,0,1,5.93.94L46,47.39a12.32,12.32,0,0,0-3.85,2.29c-1.46,1.18-2.19,2.16-2.19,2.92q0,2.3,4.16,2.29,2.51,0,5.31-3c.9-1.25,1.81-2.46,2.71-3.64ZM21,18.87q0,4.36-2.71,4.37c-1.66,0-2.5-.94-2.5-2.81a11,11,0,0,1,.94-4.06c.91-2,1.39-3.16,1.46-3.44a4.75,4.75,0,0,1,.21,2.71c1.73,1,2.6,2.05,2.6,3.23ZM70.63,57.08c-.14,2.36-.94,3.54-2.39,3.54A2,2,0,0,1,66,58.33c0-2.23,1.11-4.72,3.33-7.5l.21.1a15.74,15.74,0,0,0-1.77,5.73q0,1.56,1.14,1.56A1.47,1.47,0,0,0,70.42,57l.21.11ZM91.14,67.7c-.07,2.28-.87,3.43-2.39,3.43a2,2,0,0,1-2.29-2.29q0-3.23,3.33-7.5l.31.11q-1.87,3.85-1.87,5.72c0,1,.38,1.57,1.14,1.57a1.46,1.46,0,0,0,1.56-1.15l.21.11Zm40.08-26.55a13.37,13.37,0,0,1-1.35,6.24c-1,2.22-2.53,3.34-4.48,3.34a11.75,11.75,0,0,1-3-.32c.07.91.11,1.77.11,2.61q0,4.89-1.15,6.24-10,11.25-18.63,11.25A6.44,6.44,0,0,1,97,67.17a11.33,11.33,0,0,1-1.77-6.35q0-5.61,2.92-14-3.12,2.08-10,9.06Q80.42,63.42,77,66.24q-6.24,5-10.2,5a6.57,6.57,0,0,1-5.26-2.81A10.06,10.06,0,0,1,59.28,62q0-4.68,3-11.45a7.44,7.44,0,0,1-1.25.1,11.81,11.81,0,0,1-3-.31c.07,1,.11,1.87.11,2.71q0,4.78-1.15,5.93Q45.55,70.4,38.36,70.4a6.62,6.62,0,0,1-5.83-3.12,13.07,13.07,0,0,1-1.77-7.08,39.75,39.75,0,0,1,1.14-6.77,40.19,40.19,0,0,0,1.15-8.64,24.63,24.63,0,0,0-.73-5.93q-2.82-.63-5.83-4.06t-4-3.44q-1.35,0-4,4.06A45.59,45.59,0,0,0,15.14,42q5.52,2.91,5.52,12.91H19.51q-2.6-1.35-5.1-2.71A6.17,6.17,0,0,1,12,46.87Q6.19,49.8,6.19,54.26q0,.63,4.84,11.51T15.87,83h-.52q-.53-3.85-5.62-14.47-4.8-9.9-4.79-14.47,0-6.47,7.6-11.77a41,41,0,0,1,5-8.74q4.59-6.46,7.08-6.46,1.16,0,4.69,4.37A9.75,9.75,0,0,1,29,29.07a7.5,7.5,0,0,1,2.13-5.36,7.35,7.35,0,0,1,5.57-2.24q2.3,0,9.48,2.34a41.42,41.42,0,0,0,12.59,2.35l-3,4.89q-3.43.61-11,4.48Q37.95,39,33.67,39a4.78,4.78,0,0,1-.94-.1,25.66,25.66,0,0,1,1.15,7.6A33.43,33.43,0,0,1,33,53.74c-.59,2.64-.89,4.1-.89,4.38q0,7.91,6.45,7.91,4.8,0,10.94-4.79,3.73-3.33,7.39-6.77a16.51,16.51,0,0,0-2-5.51q-1-2.19-2.19-4.38l1.57-4.37A34.92,34.92,0,0,0,57.51,45a5.06,5.06,0,0,0,3.75,1.77,4.84,4.84,0,0,0,4.06-2.08q-.21-3.75-.73-7.19L60.53,11.37a13.78,13.78,0,0,0-.93-3.75l1.24-3.54,4.27,8.12v1.57L63,11.68a1.42,1.42,0,0,0-.1.94L66.67,37.4a22.13,22.13,0,0,1,.21,3.75q0,7.18-3.85,9.06A23.75,23.75,0,0,0,60.53,60a6.19,6.19,0,0,0,1.77,4.17A5.84,5.84,0,0,0,67,66.45q4.37,0,11.24-6.67,6.26-5.93,12.39-11.87a83.49,83.49,0,0,1,9.06-6.55c-.7-.49-1.94-1.43-3.75-2.82q-3.33-2.8-3.33-6.24,0-5.73,6.24-5.73a84.63,84.63,0,0,1,25.51,4.37l-3,4.9q-4.58,1.45-16.13,6.56,1.14,1.88,2.6,9.37c-4.3,0-6.46-1.36-6.46-4.06a12.3,12.3,0,0,1,.21-1.77,12.8,12.8,0,0,0,.21-1.67c-.76.49-1.73,1.15-2.92,2q-2.49,7.8-2.49,11.87,0,8,6.56,8,7.19,0,18.32-11.66a20.56,20.56,0,0,0-2-5.51c-.76-1.39-1.49-2.82-2.19-4.27l1.57-4.38a34.92,34.92,0,0,0,3.22,4.79,5.2,5.2,0,0,0,3.75,1.67,4.92,4.92,0,0,0,4.06-2q-.21-3.85-.73-7.29l-4.06-26a13.45,13.45,0,0,0-1-3.75l1.25-3.65,4.37,8.12v1.57l-2.08-2.09a1.79,1.79,0,0,0-.1,1L131,37.5a21.63,21.63,0,0,1,.2,3.65ZM56.58,14.6a18.79,18.79,0,0,0-1-5.73l-.93,1.77c.55,2.08.83,3.16.83,3.23,0,.69-.28,1-.83,1-.77,0-1.22-.55-1.36-1.66a6.87,6.87,0,0,0-.83-3.54l-.83,1.35a17.31,17.31,0,0,1,.52,3c0,1.11-.42,1.66-1.25,1.66q-1.66,0-1-5.1a10.61,10.61,0,0,0-2.29,3.13v1c.42-.63.76-1.15,1-1.56v3.12c.14,1.39.73,2.08,1.77,2.08s1.84-.66,2.19-2a3.11,3.11,0,0,0,2,1.15c1.39,0,2.09-1,2.09-3Zm30,26.55L82.4,39l-2,4,4.27,2.18,1.87-4Zm-11,1.56a22.26,22.26,0,0,0-.21-3.64L71.25,12.62a1.47,1.47,0,0,1,.21-1l2,2.19V12.2L69.17,4.08,67.92,7.62a14,14,0,0,1,1,3.75l4.26,27.8a54.59,54.59,0,0,1,.63,11.56h.52a22.15,22.15,0,0,0,1.15-8ZM87,25.64Q81.57,26.47,81,27c-.83.69-1.42,2.08-1.77,4.16.49-.69,1.91-1.14,4.27-1.35-.55,1.73-2.05,3.3-4.48,4.68l.11.21q6.77-2.49,7.81-9Zm28.31,23.94q.42,2.19-.93,2.4c-.49.13-1.25-.18-2.29-.94q-1,1.66-3.13,4.47a12.83,12.83,0,0,1-7.28,4.17l-2.09.42a47.41,47.41,0,0,0,7.5-4.9A18.31,18.31,0,0,0,112,49.58q.95-2,1.56-2.19,1.26-.21,1.77,2.19Zm22,11.14c0,1.53-.48,2.29-1.45,2.29a5.3,5.3,0,0,1-2.3-.62Q129.25,70,117.9,69.67h-.11v-.21q11-2.59,15-7.49a1.69,1.69,0,0,1-1.25-1.56,3.46,3.46,0,0,1,.73-1.72q.72-1.09,1.35-1.2l-.42-.83.31-.42a7.53,7.53,0,0,1,1.77,1v.32a8.18,8.18,0,0,0,1,1.25,3.23,3.23,0,0,1,1,1.87ZM86.77,11.79c0-1.74-.42-2.6-1.25-2.6-1.6,0-2.88,2.94-3.85,8.85Q80,12.93,77.81,12.93c-1.25,0-1.87.84-1.87,2.5s.69,2.29,2.08,2.29a1.41,1.41,0,0,0,1.46-1.25,34,34,0,0,1,2.4,5.1c.27-1.66.55-3.29.83-4.89.48-2.29,1.11-3.43,1.87-3.43a2,2,0,0,1,1.36.83,3.93,3.93,0,0,0,.83-2.29Zm8.85,2.81a12.26,12.26,0,0,0-.94-4.22,7.69,7.69,0,0,0-2.5-3.59l-.31,3.12a8.92,8.92,0,0,1,2.71,6.87,41.76,41.76,0,0,1-.21,4.38,20.58,20.58,0,0,0,1.25-6.56Zm60,47.16a4.11,4.11,0,0,1-.94,2.4c-.49-.56-.9-.84-1.25-.84q-1.25,0-2,3.33c-.21,1.67-.45,3.3-.73,4.9a29.37,29.37,0,0,0-2.5-5.1q-.21,1.35-1.35,1.35c-1.46,0-2.19-.8-2.19-2.39s.66-2.5,2-2.5,2.67,1.7,3.86,5.1q1.35-8.85,3.74-8.85c.9,0,1.36.87,1.36,2.6ZM117.27,20.12a18.75,18.75,0,0,0-1-5.73l-.83,1.87c.49,2,.73,3.06.73,3.13,0,.69-.28,1-.84,1-.76,0-1.17-.56-1.24-1.67a8.74,8.74,0,0,0-.84-3.54l-.93,1.36a14.94,14.94,0,0,1,.62,3.12c0,1-.42,1.56-1.25,1.56q-1.66,0-1-5.1a11.67,11.67,0,0,0-2.29,3.23v.93c.35-.62.66-1.14.94-1.56,0,1,0,2.12.1,3.23q.21,2,1.77,2t2.19-2a2.83,2.83,0,0,0,1.87,1.15c1.39,0,2.08-1,2.08-3Zm4.27-13.85a50.13,50.13,0,0,0-12.8,5,44.35,44.35,0,0,0-11.14,8,12.38,12.38,0,0,0-.52,2.39A60.61,60.61,0,0,1,120,8.35a11.84,11.84,0,0,1-1.35,4.27,10.64,10.64,0,0,0,2-3.07,8.3,8.3,0,0,0,.94-3.28Zm18.33,36.44a22.15,22.15,0,0,1-1.15,8h-.52a55.23,55.23,0,0,0-.62-11.56l-4.27-27.8a14.41,14.41,0,0,0-1-3.75l1.24-3.54,4.27,8.12v1.57l-2-2.19a1.42,1.42,0,0,0-.21,1l4.06,26.45a21.16,21.16,0,0,1,.21,3.64Zm51.32,17.18c.28,1.45,0,2.25-.93,2.39-.49.14-1.25-.17-2.3-.94q-1,1.68-3.12,4.48A12.81,12.81,0,0,1,177.55,70l-2.08.42a47,47,0,0,0,7.5-4.89,18.31,18.31,0,0,0,4.89-5.62q.94-2,1.56-2.19c.84-.14,1.42.59,1.77,2.19ZM155.9,24.8c0,2-.7,3-2.08,3a3.12,3.12,0,0,1-2-1.14c-.35,1.31-1.08,2-2.19,2S148,28,147.88,26.57V23.45c-.28.41-.62.93-1,1.56V24a10.6,10.6,0,0,1,2.29-3.12q-.63,5.1,1,5.1c.83,0,1.25-.56,1.25-1.67a17.46,17.46,0,0,0-.52-3l.83-1.35a6.86,6.86,0,0,1,.84,3.54c.14,1.11.59,1.66,1.35,1.66.56,0,.83-.34.83-1,0-.07-.27-1.14-.83-3.22l.94-1.77a19.05,19.05,0,0,1,1,5.72Zm6.35-2.6A20.58,20.58,0,0,1,161,28.76c.07-1.32.1-2.78.1-4.38a8.91,8.91,0,0,0-2.7-6.87l.31-3.12A8,8,0,0,1,161.26,18a11.59,11.59,0,0,1,1,4.22Zm3.64-18.53a60.23,60.23,0,0,0-14.16,5.41q-8.64,4.49-12.7,8.54c-.28,1-.48,1.8-.62,2.5A69.74,69.74,0,0,1,164.33,5.75,11.89,11.89,0,0,1,163,10,11,11,0,0,0,165,7a8.47,8.47,0,0,0,.93-3.28Zm9.69,39a22.15,22.15,0,0,1-1.15,8H174a60.74,60.74,0,0,0-.72-11.56L169,11.37a12.18,12.18,0,0,0-.94-3.75l1.25-3.54,4.27,8.12v1.57l-2.09-2.19a1.86,1.86,0,0,0-.1,1l4.06,26.45c.07.69.11,1.9.11,3.64Zm14.88-13.54-1.56,2.71-3.23.83q-2.7.95-2.7,2.19a35.88,35.88,0,0,1,1.14,6.77,31.43,31.43,0,0,1-.21,5.2,34.68,34.68,0,0,0-1-7,35.61,35.61,0,0,1-1-5.68,3,3,0,0,1,1.61-3l3.07-1.35a4.75,4.75,0,0,0-1.87-.52,9.2,9.2,0,0,1-1.46,1l.1-1.25a16.87,16.87,0,0,0,1.2-1.82c.38-.66.82-1,1.3-1q1.45,0,4.58,2.91Zm-.52-13.74a4.42,4.42,0,0,1-.83,2.4,2,2,0,0,0-1.35-.84c-.77,0-1.39,1.11-1.88,3.33-.28,1.67-.52,3.3-.73,4.9a29.92,29.92,0,0,0-2.49-5.1c-.21.9-.7,1.35-1.46,1.35-1.39,0-2.09-.76-2.09-2.29,0-1.74.63-2.6,1.88-2.6q2.19,0,4,5.1,1.35-8.85,3.74-8.85c.84,0,1.25.87,1.25,2.6ZM356,50.1c0,4.72-3.92,7.91-5.31,7.91-2.43,0-4.13-1.52-5.1-4.58-.69,3.06-2.12,4.58-4.27,4.58-1.94,0-3.23-1.28-3.85-3.85A7,7,0,0,1,330.6,59c-3,0-4.34-1.49-4.06-4.58a9.66,9.66,0,0,1,.1-1.15,238.8,238.8,0,0,1-71.21,10.83,205.87,205.87,0,0,1-34.25-2.81q-16-2.7-23.85-6.77-.09,3.44-.41,7h-.31a7.73,7.73,0,0,1-3.75-4.79q-.21-2-.42-3.75c-.14-1.18-1.21-1.77-3.23-1.77q-2.49,0-9.05,8t-10.1,8a4.14,4.14,0,0,1-3.39-1.87,8.19,8.19,0,0,1-1.4-5,17.66,17.66,0,0,1,.62-4.37,5.92,5.92,0,0,1-2.39.62q-5,0-6.46-6.77-.51,8.13-7.39,8.12-3,0-4.37-3.22a11.52,11.52,0,0,1-.94-5.73c0-.21.18-1.32.52-3.33a16,16,0,0,0,.21-4.37,18.53,18.53,0,0,0-2.39,6.24c-.35,1.88-.7,3.75-1,5.63q-.94,4.36-3.23,4.37c-1,0-2-1-2.87-2.86a14.94,14.94,0,0,1-1.3-6.2,51.21,51.21,0,0,1,.63-7.6l.52.11a29.79,29.79,0,0,0-.31,4.26c0,5.56,1.18,8.33,3.54,8.33.76,0,1.45-1.21,2.08-3.64,1.18-4.24,1.87-6.66,2.08-7.29q1.66-4.36,4.37-5.72l-.1,3.12c-.56,4.44-.83,7.11-.83,8q0,5.42,3.85,5.42a5.9,5.9,0,0,0,4.32-2,6.39,6.39,0,0,0,1.92-4.58L154.54,37l1.26-3.33a12,12,0,0,1,1.45,3.75c.42,3,.83,6,1.25,9q1.45,5.94,5.42,5.94a3.66,3.66,0,0,0,3.53-2L165,44.9a24,24,0,0,1-2.09-7l-.62-1.67.83-3.54,3.65,5.63v1a10.42,10.42,0,0,1-1.67-1.25c-.07.34-.07.52,0,.52s.61,1.35,1.82,4.06a17.52,17.52,0,0,1,1.82,7q0,4.49-2.08,5.94a16.19,16.19,0,0,0-.62,3.75q0,3.43,3.33,3.43t9.73-8.07q6.41-8.07,10.05-8.07a6.54,6.54,0,0,1,3.33,1.46l1.35-2.91q3.54,5,20.51,9,19.37,4.59,44.67,4.59a258.84,258.84,0,0,0,37.37-3,298.63,298.63,0,0,0,32.18-6.56,3.29,3.29,0,0,0-.42,1.56c-.27,2.72.39,4.47,3.12,4.06a9.42,9.42,0,0,0,5.21-2.6l3.22-3,.32.1a3.06,3.06,0,0,0-.21,1.15c0,2.29.83,3.43,2.5,3.43.9,0,1.8-.76,2.7-2.29a14.58,14.58,0,0,1,2.5-3.43l.42-.11c-.14.42-.12.81-.21,1.15-.82,3.17.22,5.06,4,5.1,1.66,0,2.5-.63,2.5-1.87q0-2.3-3.54-9-4-7.29-4.27-8.85l-1.25-2.39.73-3.65,5,5.1v.94l-2.19-.94v.53l3.75,6Q356,46.46,356,50.1Zm-30.61,9.06c0,.07-.21.14-.62.21-.42,1.73-.87,2.6-1.36,2.6-1,0-1.49-.69-1.35-2.08l-.73.41c-.83,1.74-1.58,2.44-2.19,2.61-2.3.63-3.76.36-3.33-1.88.2-1-2.88.73-5.51,2.19q-5.42,2.81-8.33,4a31.64,31.64,0,0,1-11,2.09l.42.41A42,42,0,0,0,303,68.11a62.7,62.7,0,0,0,7.29-3c2.21-1,4.81-2.45,4.68-1.56q-.35,2.4,3,1.67a4.85,4.85,0,0,0,3-2.4,2,2,0,0,0,1.87,1.46q2.5,0,2.5-5.1Zm26.65,4-4.16-2.18L346,64.88l4.16,2.19,1.87-4ZM340.38,38.34q0,4.36-2.7,4.37c-1.67,0-2.5-.94-2.5-2.81a9.89,9.89,0,0,1,1-4.06c.9-2,1.39-3.16,1.46-3.44a4.11,4.11,0,0,1,.1,2.71c1.74,1,2.6,2,2.6,3.23Zm1.88-19.16c0-1.74-.45-2.6-1.36-2.6q-2.28,0-3.74,8.85c-1.11-3.4-2.4-5.11-3.86-5.11-1.24,0-1.87.84-1.87,2.5s.69,2.4,2.08,2.4c.76,0,1.25-.45,1.46-1.36A33.27,33.27,0,0,1,337.36,29c.28-1.67.53-3.3.73-4.9q.74-3.33,2-3.33a1.69,1.69,0,0,1,1.25.83A4,4,0,0,0,342.26,19.18Z"></path></svg>